<svg width="83px" height="80px" viewBox="0 0 83 80" version="1.1" xmlns="http://www.w3.org/2000/svg" xmlns:xlink="http://www.w3.org/1999/xlink">
    <!-- Generator: Sketch 40.2 (33826) - http://www.bohemiancoding.com/sketch -->
    <desc>Created with Sketch.</desc>
    <defs></defs>
    <g id="penguin_suit" stroke="none" stroke-width="1" fill="none" fill-rule="evenodd">
        <path d="M44.298,28.678 L41.564,28.678 L38.688,28.678 C38.306,28.733 37.12,29.447 36.214,30.16 C35.309,30.873 36.254,32.465 36.254,32.465 C36.254,32.465 38.929,35.65 39.785,36.528 C40.643,37.406 41.563,37.241 41.563,37.241 C41.563,37.241 42.322,37.406 43.178,36.528 C44.035,35.65 46.629,32.465 46.629,32.465 C46.629,32.465 47.534,30.873 46.629,30.16 C45.725,29.447 44.679,28.732 44.298,28.678 L44.298,28.678 Z" id="Shape" fill="#2e3141"></path>
        <path d="M81.225,48.704 C79.809,46.954 66.307,35.006 65.974,31.765 C65.641,28.524 63.281,17.435 63.021,16.185 C62.763,14.946 60.787,0.372 41.787,0.029 L41.787,0.012 C41.787,0.012 42.702,0.008 43.774,0.003 C43.771,0.002 43.83,0.002 43.826,0.001 C43.472,0.003 43.146,0.004 42.754,0.006 C42.3,0.008 41.822,0.011 41.315,0.013 C40.803,0.011 40.316,0.008 39.862,0.006 C39.371,0.004 38.917,0.002 38.486,0 C38.473,0.001 38.56,0.001 38.548,0.002 C39.755,0.008 40.786,0.012 40.786,0.012 L40.786,0.03 C22.786,0.393 19.882,14.948 19.625,16.185 C19.365,17.435 17.085,28.524 16.753,31.765 C16.419,35.006 2.894,46.954 1.478,48.704 C0.062,50.454 -0.784,51.646 1.049,53.062 C2.882,54.48 6.959,51.865 9.042,50.449 C11.125,49.031 12.706,49.387 12.706,49.387 L12.708,49.17 C12.656,53.237 15.127,60.678 16.225,62.678 L16.223,62.678 L17.382,65.689 C13.486,66.913 10.911,69.11 10.911,71.489 C10.911,71.559 10.929,71.683 10.933,71.754 C10.838,72.197 10.786,72.681 10.786,73.151 C10.786,76.741 13.696,79.678 17.286,79.678 L33.286,79.678 C35.586,79.678 37.603,78.482 38.757,76.678 L43.938,76.678 C45.093,78.477 47.097,79.678 49.394,79.678 L65.394,79.678 C68.984,79.678 71.894,76.768 71.894,73.178 C71.894,72.707 71.841,72.25 71.747,71.807 C71.752,71.737 71.769,71.666 71.769,71.595 C71.769,69.216 69.195,67.126 65.298,65.903 L66.457,63.106 L66.456,63.106 C67.554,60.418 70.025,53.452 69.974,49.384 L69.977,49.387 C69.977,49.387 71.561,49.032 73.644,50.449 C75.727,51.865 79.81,54.48 81.643,53.062 C83.476,51.646 82.641,50.454 81.225,48.704 L81.225,48.704 Z M63.207,63.542 C63.113,64.077 62.986,64.674 62.82,65.291 C61.125,64.958 59.281,64.762 57.331,64.762 C50.14,64.762 44.194,67.252 43.094,70.51 C42.662,71.173 42.395,71.926 42.395,72.74 C42.395,73.436 42.59,74.088 42.916,74.678 L39.606,74.678 C39.927,74.088 40.12,73.435 40.12,72.74 C40.12,72.133 39.975,71.556 39.726,71.025 C39.114,67.518 32.917,64.761 25.35,64.761 C23.4,64.761 21.556,64.957 19.861,65.29 C19.695,64.673 19.568,64.076 19.474,63.541 C18.809,58.978 17.197,41.67 29.286,32.927 C29.427,32.825 29.556,32.731 29.687,32.634 L29.401,32.34 L30.24,31.484 C27.572,30.336 25.703,27.683 25.703,24.594 C25.703,20.452 29.06,17.094 33.203,17.094 C36.238,17.094 38.847,18.901 40.026,21.493 L41.3,20.192 L42.599,21.493 C43.779,18.9 46.441,17.094 49.476,17.094 C53.619,17.094 56.976,20.452 56.976,24.594 C56.976,27.683 55.107,30.335 52.439,31.484 L53.278,32.34 L52.992,32.634 C53.124,32.731 53.253,32.825 53.393,32.927 C65.484,41.671 63.872,58.979 63.207,63.542 L63.207,63.542 Z" id="Shape" fill="#2e3141"></path>
        <ellipse id="Oval" fill="#2e3141" cx="44.019" cy="23.637" rx="1.625" ry="3.125"></ellipse>
        <ellipse id="Oval" fill="#2e3141" cx="38.662" cy="23.637" rx="1.625" ry="3.125"></ellipse>
        <polygon id="Shape" fill="#2e3141" points="38.774 43.678 35.98 60.282 41.358 66.012 46.875 60.344 44.035 43.678"></polygon>
        <path d="M37.915,42.678 L44.659,42.678 C45.834,42.678 46.787,41.782 46.787,40.678 C46.787,39.574 45.834,38.678 44.659,38.678 L37.915,38.678 C36.74,38.678 35.787,39.574 35.787,40.678 C35.787,41.782 36.739,42.678 37.915,42.678 L37.915,42.678 Z" id="Shape" fill="#2e3141"></path>
    </g>
</svg>