<svg width="79px" height="99px" viewBox="11 0 79 99" version="1.1" xmlns="http://www.w3.org/2000/svg" xmlns:xlink="http://www.w3.org/1999/xlink">
    <!-- Generator: Sketch 40.2 (33826) - http://www.bohemiancoding.com/sketch -->
    <desc>Created with Sketch.</desc>
    <defs></defs>
    <g id="noun_3931_cc" stroke="none" stroke-width="1" fill="none" fill-rule="evenodd" transform="translate(11.000000, 0.000000)">
        <path d="M43.366,0.753 C32.356,0.753 23.165,8.494 20.91,18.827 L7.194,23.27 L20.457,25.511 C21.451,35.629 31.549,28.3 43.604,28.3 C56.305,28.3 66.362,36.449 66.362,23.749 C66.362,11.049 56.065,0.753 43.366,0.753 L43.366,0.753 Z M43.126,20.994 C41.473,20.994 40.133,19.654 40.133,18 C40.133,16.346 41.473,15.005 43.126,15.005 C44.781,15.005 46.12,16.346 46.12,18 C46.12,19.654 44.781,20.994 43.126,20.994 L43.126,20.994 Z" id="Shape" fill="#222"></path>
        <ellipse id="Oval" fill="#222" cx="58.337" cy="67.228" rx="20.481" ry="31.62"></ellipse>
        <path d="M26.433,35.889 L19.893,31.235 L20.105,34.051 C9.362,35.027 0.844,48.781 0.844,65.611 C0.844,83.075 10.014,97.231 21.326,97.231 C22.301,97.231 23.26,97.119 24.201,96.916 C14.25,94.756 6.593,81.568 6.593,65.61 C6.593,51.851 12.291,40.17 20.239,35.823 L20.76,42.746 L26.332,37.668 L32.825,43.169 L33.521,30.915 L26.433,35.889 L26.433,35.889 Z" id="Shape" fill="#222"></path>
    </g>
</svg>