<svg width="83px" height="80px" viewBox="0 0 83 80" version="1.1" xmlns="http://www.w3.org/2000/svg" xmlns:xlink="http://www.w3.org/1999/xlink">
    <!-- Generator: Sketch 40.2 (33826) - http://www.bohemiancoding.com/sketch -->
    <desc>Created with Sketch.</desc>
    <defs></defs>
    <g id="penguin_cool" stroke="none" stroke-width="1" fill="none" fill-rule="evenodd" opacity="0.93">
        <path d="M44.525,28.678 L41.709,28.678 L38.746,28.678 C38.352,28.74 37.13,29.548 36.198,30.356 C35.265,31.164 36.239,32.966 36.239,32.966 C36.239,32.966 38.994,36.571 39.878,37.565 C40.761,38.559 41.709,38.373 41.709,38.373 C41.709,38.373 42.49,38.56 43.373,37.565 C44.257,36.571 46.929,32.966 46.929,32.966 C46.929,32.966 47.861,31.164 46.929,30.356 C45.996,29.548 44.918,28.74 44.525,28.678 L44.525,28.678 Z" id="Shape" fill="#2e3141"></path>
        <path d="M81.225,48.704 C79.809,46.954 66.307,35.006 65.974,31.765 C65.641,28.524 63.281,17.435 63.021,16.185 C62.763,14.946 60.787,0.372 41.787,0.029 L41.787,0.012 C41.787,0.012 42.702,0.008 43.774,0.003 C43.771,0.002 43.83,0.002 43.826,0.001 C43.472,0.003 43.146,0.004 42.754,0.006 C42.3,0.008 41.822,0.011 41.315,0.013 C40.803,0.011 40.316,0.008 39.862,0.006 C39.371,0.004 38.917,0.002 38.486,0 C38.473,0.001 38.56,0.001 38.548,0.002 C39.755,0.008 40.786,0.012 40.786,0.012 L40.786,0.03 C22.786,0.394 19.882,14.947 19.625,16.185 C19.365,17.435 17.085,28.524 16.753,31.765 C16.419,35.006 2.894,46.954 1.478,48.704 C0.062,50.454 -0.784,51.646 1.049,53.062 C2.882,54.48 6.959,51.865 9.042,50.449 C11.125,49.031 12.706,49.387 12.706,49.387 L12.708,49.17 C12.656,53.237 15.127,60.678 16.225,62.678 L16.223,62.678 L17.382,65.689 C13.486,66.913 10.911,69.109 10.911,71.488 C10.911,71.559 10.929,71.683 10.933,71.753 C10.838,72.196 10.786,72.68 10.786,73.151 C10.786,76.741 13.696,79.678 17.286,79.678 L33.286,79.678 C35.586,79.678 37.603,78.482 38.757,76.678 L43.938,76.678 C45.094,78.477 47.097,79.678 49.394,79.678 L65.394,79.678 C68.984,79.678 71.894,76.768 71.894,73.178 C71.894,72.707 71.841,72.25 71.747,71.807 C71.752,71.737 71.769,71.666 71.769,71.595 C71.769,69.216 69.195,67.126 65.298,65.903 L66.457,63.106 L66.456,63.106 C67.554,60.418 70.025,53.452 69.974,49.384 L69.977,49.387 C69.977,49.387 71.561,49.032 73.644,50.449 C75.727,51.865 79.81,54.48 81.643,53.062 C83.476,51.646 82.641,50.454 81.225,48.704 L81.225,48.704 Z M63.207,63.542 C63.113,64.077 62.986,64.674 62.82,65.291 C61.125,64.958 59.281,64.762 57.331,64.762 C50.14,64.762 44.194,67.253 43.094,70.51 C42.662,71.173 42.395,71.927 42.395,72.74 C42.395,73.436 42.59,74.088 42.916,74.678 L39.606,74.678 C39.927,74.088 40.12,73.435 40.12,72.74 C40.12,72.133 39.975,71.556 39.726,71.025 C39.114,67.518 32.917,64.761 25.35,64.761 C23.4,64.761 21.556,64.957 19.861,65.29 C19.695,64.673 19.568,64.076 19.474,63.541 C18.809,58.978 17.197,41.67 29.286,32.927 C29.427,32.825 29.556,32.731 29.687,32.634 L29.401,32.34 L29.451,32.289 C29.251,32.175 29.076,31.99 28.941,31.734 C28.842,31.763 28.737,31.781 28.624,31.79 C28.651,31.793 28.677,31.8 28.704,31.803 C25.633,32.106 22.85,29.852 22.969,24.597 C23.062,20.512 26.188,19.206 28.451,18.793 C29.745,17.732 31.399,17.094 33.203,17.094 C36.238,17.094 38.847,18.901 40.026,21.493 L41.3,20.193 L42.599,21.493 C43.779,18.9 46.441,17.094 49.476,17.094 C51.4,17.094 53.149,17.824 54.477,19.016 C56.575,19.612 58.925,21.064 59.005,24.597 C59.122,29.791 56.404,32.049 53.375,31.807 C56.043,31.593 58.262,29.299 58.156,24.597 C58.082,21.282 56.007,19.801 54.017,19.138 L48.244,29.972 C48.872,30.431 49.577,30.868 50.367,31.233 C51.163,31.6 51.977,31.791 52.766,31.82 L53.277,32.341 L52.991,32.635 C53.123,32.732 53.252,32.826 53.392,32.928 C65.484,41.671 63.872,58.979 63.207,63.542 L63.207,63.542 Z" id="Shape" fill="#2e3141"></path>
        <path d="M32.344,18.652 C32.344,18.652 24.762,17.585 24.083,23.969 C23.698,27.598 24.828,29.9 26.587,30.955 L33.103,18.73 C32.85,18.704 32.611,18.665 32.344,18.652 L32.344,18.652 Z" id="Shape" fill="#2e3141"></path>
        <path d="M50.369,18.611 C46.185,18.466 43.59,20.197 43.085,21.496 C42.992,21.734 42.988,22.044 43.042,22.39 C42.422,22.052 41.763,21.779 41.079,21.779 C40.492,21.779 39.925,21.988 39.383,22.259 C39.376,22.217 39.375,22.172 39.363,22.133 C39.029,21.006 37.222,19.459 34.159,18.877 L27.502,31.366 C28.658,31.751 29.981,31.707 31.294,31.229 C35.176,29.816 37.392,26.671 37.392,26.671 C37.392,26.671 39.175,24.256 39.386,22.746 C39.912,22.487 40.467,22.274 41.039,22.274 C41.795,22.274 42.518,22.642 43.185,23.001 C43.612,24.461 44.672,26.183 44.672,26.183 C44.672,26.183 45.614,27.785 47.446,29.344 L53.031,18.867 C51.573,18.55 50.369,18.611 50.369,18.611 L50.369,18.611 Z" id="Shape" fill="#2e3141"></path>
    </g>
</svg>